<?xml version="1.0" encoding="UTF-8" standalone="no"?>
<!-- Creator: CorelDRAW -->

<svg
   xmlns:dc="http://purl.org/dc/elements/1.1/"
   xmlns:cc="http://creativecommons.org/ns#"
   xmlns:rdf="http://www.w3.org/1999/02/22-rdf-syntax-ns#"
   xmlns:svg="http://www.w3.org/2000/svg"
   xmlns="http://www.w3.org/2000/svg"
   xmlns:sodipodi="http://sodipodi.sourceforge.net/DTD/sodipodi-0.dtd"
   xmlns:inkscape="http://www.inkscape.org/namespaces/inkscape"
   xml:space="preserve"
   width="11.4862mm"
   height="18.6262mm"
   style="clip-rule:evenodd;fill-rule:evenodd;image-rendering:optimizeQuality;shape-rendering:geometricPrecision;text-rendering:geometricPrecision"
   viewBox="0 0 11.4862 18.6262"
   version="1.1"
   id="svg210"
   sodipodi:docname="asd.svg"
   inkscape:version="0.92.2 (5c3e80d, 2017-08-06)"><metadata
     id="metadata214"><rdf:RDF><cc:Work
         rdf:about=""><dc:format>image/svg+xml</dc:format><dc:type
           rdf:resource="http://purl.org/dc/dcmitype/StillImage" /><dc:title></dc:title></cc:Work></rdf:RDF></metadata><sodipodi:namedview
     pagecolor="#ffffff"
     bordercolor="#666666"
     borderopacity="1"
     objecttolerance="10"
     gridtolerance="10"
     guidetolerance="10"
     inkscape:pageopacity="0"
     inkscape:pageshadow="2"
     inkscape:window-width="1366"
     inkscape:window-height="716"
     id="namedview212"
     showgrid="false"
     inkscape:zoom="5.5131314"
     inkscape:cx="18.892818"
     inkscape:cy="33.472018"
     inkscape:window-x="-8"
     inkscape:window-y="-8"
     inkscape:window-maximized="1"
     inkscape:current-layer="svg210" /><defs
     id="defs115"><style
       type="text/css"
       id="style113"><![CDATA[
    .str0 {stroke:#1F1A17;stroke-width:0.0762}
    .str1 {stroke:white;stroke-width:0.0762}
    .str2 {stroke:white;stroke-width:0.1764}
    .fil2 {fill:none}
    .fil0 {fill:#1F1A17}
    .fil1 {fill:white}
   ]]></style></defs><g
     id="_163516504"
     transform="translate(-60.4248,-146.5169)"><polygon
       style="fill:#ffffff"
       points="62.4248,147.701 60.4248,147.701 60.4248,147.111 62.4248,147.111 "
       class="fil1"
       id="_163477976" /><polygon
       style="fill:#ffffff"
       points="62.4248,148.988 60.4248,148.988 60.4248,148.398 62.4248,148.398 "
       class="fil1"
       id="_163477904" /><polygon
       style="fill:#ffffff"
       points="62.4248,150.275 60.4248,150.275 60.4248,149.685 62.4248,149.685 "
       class="fil1"
       id="_163477856" /><polygon
       style="fill:#ffffff"
       points="62.4248,151.554 60.4248,151.554 60.4248,150.964 62.4248,150.964 "
       class="fil1"
       id="_163477808" /><polygon
       style="fill:#ffffff"
       points="62.4248,152.84 60.4248,152.84 60.4248,152.25 62.4248,152.25 "
       class="fil1"
       id="_163477760" /><polygon
       style="fill:#ffffff"
       points="62.4248,154.115 60.4248,154.115 60.4248,153.525 62.4248,153.525 "
       class="fil1"
       id="_163477712" /><polygon
       style="fill:#ffffff"
       points="62.4248,155.397 60.4248,155.397 60.4248,154.807 62.4248,154.807 "
       class="fil1"
       id="_163477664" /><polygon
       style="fill:#ffffff"
       points="62.4248,156.685 60.4248,156.685 60.4248,156.095 62.4248,156.095 "
       class="fil1"
       id="_163477616" /><polygon
       style="fill:#ffffff"
       points="62.4248,157.973 60.4248,157.973 60.4248,157.383 62.4248,157.383 "
       class="fil1"
       id="_163477568" /><polygon
       style="fill:#ffffff"
       points="62.4248,159.261 60.4248,159.261 60.4248,158.671 62.4248,158.671 "
       class="fil1"
       id="_163477520" /><polygon
       style="fill:#ffffff"
       points="62.4248,160.549 60.4248,160.549 60.4248,159.959 62.4248,159.959 "
       class="fil1"
       id="_163477472" /><polygon
       style="fill:#ffffff"
       points="62.4248,161.84 60.4248,161.84 60.4248,161.25 62.4248,161.25 "
       class="fil1"
       id="_163477424" /><polygon
       style="fill:#ffffff"
       points="62.4248,163.131 60.4248,163.131 60.4248,162.541 62.4248,162.541 "
       class="fil1"
       id="_163477352" /><polygon
       style="fill:#ffffff"
       points="62.4248,164.416 60.4248,164.416 60.4248,163.826 62.4248,163.826 "
       class="fil1"
       id="_163477304" /><polygon
       style="fill:#ffffff"
       points="71.911,147.701 69.911,147.701 69.911,147.111 71.911,147.111 "
       class="fil1"
       id="_163477256" /><polygon
       style="fill:#ffffff"
       points="71.911,148.988 69.911,148.988 69.911,148.398 71.911,148.398 "
       class="fil1"
       id="_163477208" /><polygon
       style="fill:#ffffff"
       points="71.911,150.275 69.911,150.275 69.911,149.685 71.911,149.685 "
       class="fil1"
       id="_163477160" /><polygon
       style="fill:#ffffff"
       points="71.911,151.554 69.911,151.554 69.911,150.964 71.911,150.964 "
       class="fil1"
       id="_163477112" /><polygon
       style="fill:#ffffff"
       points="71.911,152.84 69.911,152.84 69.911,152.25 71.911,152.25 "
       class="fil1"
       id="_163468592" /><polygon
       style="fill:#ffffff"
       points="71.911,154.115 69.911,154.115 69.911,153.525 71.911,153.525 "
       class="fil1"
       id="_163468544" /><polygon
       style="fill:#ffffff"
       points="71.911,155.397 69.911,155.397 69.911,154.807 71.911,154.807 "
       class="fil1"
       id="_163468496" /><polygon
       style="fill:#ffffff"
       points="71.911,156.685 69.911,156.685 69.911,156.095 71.911,156.095 "
       class="fil1"
       id="_163468448" /><polygon
       style="fill:#ffffff"
       points="71.911,157.973 69.911,157.973 69.911,157.383 71.911,157.383 "
       class="fil1"
       id="_163468400" /><polygon
       style="fill:#ffffff"
       points="71.911,159.261 69.911,159.261 69.911,158.671 71.911,158.671 "
       class="fil1"
       id="_163468352" /><polygon
       style="fill:#ffffff"
       points="71.911,160.549 69.911,160.549 69.911,159.959 71.911,159.959 "
       class="fil1"
       id="_163468304" /><polygon
       style="fill:#ffffff"
       points="71.911,161.84 69.911,161.84 69.911,161.25 71.911,161.25 "
       class="fil1"
       id="_163468256" /><polygon
       style="fill:#ffffff"
       points="71.911,163.131 69.911,163.131 69.911,162.541 71.911,162.541 "
       class="fil1"
       id="_163468208" /><polygon
       style="fill:#ffffff"
       points="71.911,164.416 69.911,164.416 69.911,163.826 71.911,163.826 "
       class="fil1"
       id="_163468160" /><polyline
       style="fill:none;stroke:#ffffff;stroke-width:0.0762"
       points="66.9224,146.555 69.4824,146.555 69.4824,165.105 62.8624,165.105 62.8624,146.555 65.4224,146.555 "
       class="fil2 str1"
       id="_163468112" /><path
       style="fill:none;stroke:#ffffff;stroke-width:0.0762"
       inkscape:connector-curvature="0"
       d="m 66.9224,146.555 c 0,0.4141 -0.336,0.75 -0.75,0.75 -0.414,0 -0.75,-0.3359 -0.75,-0.75"
       class="fil2 str1"
       id="_163468064" /></g></svg>